<svg id="external-link" xmlns="http://www.w3.org/2000/svg" width="12.45" height="12.45" viewBox="0 0 12.45 12.45">
  <g id="Group_58" data-name="Group 58" transform="translate(4.527)">
    <g id="Group_57" data-name="Group 57">
      <path id="Path_333" data-name="Path 333" d="M193.539,0h-4.527a.566.566,0,1,0,0,1.132h3.161l-5.825,5.825a.566.566,0,1,0,.8.8l5.825-5.825V5.093a.566.566,0,0,0,1.132,0V.566A.566.566,0,0,0,193.539,0Z" transform="translate(-186.182)" fill="#f6f6fa"/>
    </g>
  </g>
  <g id="Group_60" data-name="Group 60" transform="translate(0 2.264)">
    <g id="Group_59" data-name="Group 59">
      <path id="Path_334" data-name="Path 334" d="M9.62,96.486a.566.566,0,0,0-.566.566v5.093H1.132V94.223H6.225a.566.566,0,1,0,0-1.132H.566A.566.566,0,0,0,0,93.657v9.055a.566.566,0,0,0,.566.566H9.62a.566.566,0,0,0,.566-.566V97.052A.566.566,0,0,0,9.62,96.486Z" transform="translate(0 -93.091)" fill="#f6f6fa"/>
    </g>
  </g>
</svg>
