<svg xmlns="http://www.w3.org/2000/svg" width="54" height="54" viewBox="0 0 54 54">
  <g id="Group_209" data-name="Group 209" transform="translate(-761 -3026)">
    <path id="Path_997" data-name="Path 997" d="M27,0A27,27,0,1,1,0,27,27,27,0,0,1,27,0Z" transform="translate(761 3026)" fill="#ffe600"/>
    <path id="close" d="M11.765,10.08,19.5,2.342A1.288,1.288,0,1,0,17.686.525L9.944,8.26,2.206.52A1.288,1.288,0,0,0,.389,2.337L8.124,10.08.386,17.818A1.288,1.288,0,1,0,2.2,19.635L9.944,11.9l7.738,7.735A1.288,1.288,0,0,0,19.5,17.818Zm0,0" transform="translate(788.236 3038.98) rotate(45)" fill="#3a3a4a"/>
  </g>
</svg>
